<svg width="93" height="21" viewBox="0 0 93 21" fill="none" xmlns="http://www.w3.org/2000/svg">
<path d="M57.0784 5.45689C56.9492 5.5473 56.8459 5.72813 56.6263 5.68939C56.6522 5.12107 56.3551 4.94024 55.8255 4.96607C55.3993 4.9919 54.9601 4.96607 54.5339 4.96607C53.7202 4.96607 53.6427 5.04357 53.6427 5.84438C53.6427 9.20262 53.6427 12.5609 53.6427 15.9191C53.6427 17.0428 53.6427 18.1536 53.6427 19.2774C53.6427 20.1298 53.7202 20.2073 54.5468 20.2073C54.9601 20.2073 55.3605 20.2073 55.7739 20.2073C56.8976 20.2073 56.8976 20.2073 56.8976 19.0449C56.8976 17.7532 56.8976 16.4745 56.8976 15.1054C59.6746 16.7458 62.2837 15.4154 63.2395 13.5167C64.2986 11.4113 64.402 9.24138 63.4203 7.11018C62.2966 4.65608 59.2871 3.91985 57.0784 5.45689ZM60.1008 12.4188C59.2484 13.62 57.8534 13.2842 57.0267 12.6384C56.8718 12.5092 56.8847 12.3413 56.8847 12.1734C56.8847 10.9463 56.8847 9.71928 56.8847 8.49223C56.8847 8.32431 56.8459 8.14349 57.0009 8.01432C58.0213 7.13601 59.6746 6.92935 60.3592 8.45348C60.6175 9.03471 60.6433 9.6547 60.6821 10.2101C60.6562 11.0367 60.5658 11.773 60.1008 12.4188Z" fill="#303F8C"/>
<path d="M72.3584 5.16002C69.6589 3.68756 65.9261 5.10835 64.8411 7.97578C64.4794 8.91867 64.4149 9.90031 64.4924 10.8949C64.6474 13.1423 65.9648 14.8602 68.0314 15.4931C69.5943 15.9839 71.183 15.8547 72.7459 15.4802C74.6188 15.0281 74.6575 14.9248 74.115 13.1036C73.9729 12.6127 73.7534 12.4836 73.2755 12.6902C72.5134 13.0131 71.7126 13.1681 70.8989 13.2069C69.5943 13.2715 68.4706 12.5998 68.0573 11.5923C67.9152 11.2178 67.9669 11.0757 68.3802 11.0886C69.3231 11.1015 70.2789 11.0886 71.2218 11.0886V11.0757C72.1647 11.0757 73.1205 11.0628 74.0634 11.0757C74.5542 11.0757 74.7738 10.8432 74.7608 10.3653C74.735 9.82281 74.735 9.29324 74.6704 8.75076C74.4638 7.2008 73.7792 5.935 72.3584 5.16002ZM71.1572 9.00908C70.6664 8.98325 70.1626 9.00908 69.6718 9.00908C69.6718 9.00908 69.6718 9.00908 69.6718 9.022C69.2197 9.022 68.7677 9.022 68.3156 9.022C68.1089 9.022 67.941 9.03492 67.9927 8.71201C68.1477 7.89828 68.9614 7.17497 69.8268 7.16205C70.6922 7.14913 71.2993 7.66578 71.493 8.55701C71.5705 8.867 71.5318 9.022 71.1572 9.00908Z" fill="#303F8C"/>
<path d="M81.3352 13.1036C81.2706 13.1036 81.206 13.1165 81.1415 13.1294C79.9273 13.3232 79.4882 12.9744 79.4623 11.7603C79.4365 10.6882 79.4494 9.60325 79.4494 8.5312C79.4494 7.14915 79.4494 7.14915 80.8056 7.14915C82.3943 7.14915 82.3814 7.14915 82.3298 5.53461C82.3168 5.08254 82.136 4.91463 81.7098 4.91463C81.1285 4.92754 80.5473 4.88879 79.9661 4.92754C79.5786 4.95337 79.4365 4.83713 79.4494 4.43672C79.4882 3.77799 79.4494 3.10634 79.4623 2.43469C79.4623 1.99554 79.2686 1.78887 78.8294 1.84054C78.119 1.91804 77.4216 2.03429 76.7241 2.1247C76.3624 2.17637 76.2074 2.37011 76.2074 2.73177C76.2203 3.313 76.1945 3.89423 76.2203 4.47547C76.2333 4.85004 76.1041 4.96629 75.7424 4.95338C75.4324 4.94046 75.032 4.79838 74.8512 5.14712C74.5541 5.67669 74.6575 6.28376 74.7737 6.85208C74.877 7.3429 75.3808 7.17498 75.7037 7.16207C76.1299 7.14915 76.2074 7.31706 76.1945 7.69164C76.1687 8.55703 76.1816 9.40951 76.1816 10.2749H76.1945C76.1945 10.727 76.1945 11.179 76.1945 11.6311C76.2074 12.0832 76.2074 12.5353 76.2333 12.9873C76.3366 14.4081 77.0082 15.2994 78.274 15.6352C79.6948 16.0098 81.0898 15.816 82.4331 15.2606C82.5881 15.196 82.7818 15.1185 82.7948 14.9248C82.8077 14.279 82.756 13.5944 82.4331 13.0519C82.1877 12.5869 81.7227 13.0907 81.3352 13.1036Z" fill="#303F8C"/>
<path d="M91.4617 13.2714C90.6608 13.2843 89.873 13.2843 89.0721 13.2843C88.5684 13.2843 88.0776 13.2843 87.4576 13.2843C87.6772 12.9614 87.7934 12.7677 87.9355 12.5739C89.1367 10.869 90.3379 9.164 91.565 7.48488C91.9525 6.95531 92.1462 6.41282 92.1075 5.75409C92.0687 5.00494 92.0041 4.90161 91.2421 4.90161C89.2401 4.90161 87.238 4.91453 85.2489 4.91453C83.8281 4.91453 83.8281 4.91453 83.841 6.32241C83.8539 7.09739 83.9056 7.14905 84.7064 7.14905C85.7656 7.14905 86.8376 7.14905 88.013 7.14905C87.083 8.49235 86.2176 9.74523 85.3652 10.9981C84.8098 11.8118 84.2285 12.6127 83.686 13.4393C83.3115 14.0076 83.3373 14.6664 83.5698 15.2347C83.7635 15.6997 84.3318 15.5059 84.7452 15.5059C86.6955 15.5188 88.6588 15.5059 90.6092 15.493C92.4046 15.4801 92.0946 15.6609 92.1462 13.9301C92.1721 13.4006 91.9396 13.2585 91.4617 13.2714Z" fill="#303F8C"/>
<path d="M21.8685 0.833086C21.8685 0.0193569 21.8168 -0.0193921 21.0418 0.0581059C20.5252 0.109771 20.0214 0.200185 19.5048 0.238934C18.8461 0.290599 18.5877 0.587675 18.6136 1.28516C18.6652 2.65429 18.6265 4.02342 18.6265 5.48296C16.2499 3.94592 13.447 4.83714 12.3104 6.99417C11.2125 9.09953 11.0833 11.2824 12.0779 13.4394C13.2016 15.8677 16.1336 16.6168 18.3552 15.1444C18.5102 15.041 18.6781 14.9377 18.8848 14.8085C18.859 15.4931 19.2206 15.6223 19.7502 15.5835C20.1506 15.5577 20.5639 15.5835 20.9772 15.5706C21.8168 15.5706 21.8814 15.506 21.8814 14.6277C21.8814 11.2566 21.8814 7.87248 21.8814 4.50132C21.8685 3.28719 21.8685 2.06014 21.8685 0.833086ZM17.8386 12.9874C17.0636 13.2973 16.3403 13.3748 15.6686 12.8065C14.4416 11.7603 14.5837 8.5958 15.8882 7.6529C16.5599 7.175 17.9936 7.31708 18.5102 7.92415C18.6394 8.07914 18.6265 8.24706 18.6265 8.41497C18.6265 9.02203 18.6265 9.61619 18.6265 10.2233C18.6265 10.6495 18.5877 11.0886 18.6394 11.5149C18.7169 12.1995 18.549 12.7032 17.8386 12.9874Z" fill="#E0A66E"/>
<path d="M11.0575 13.4008C10.4633 13.4266 10.4892 13.0262 10.4892 12.6258C10.4892 10.3913 10.4892 8.15676 10.4892 5.92223C10.4892 5.12142 10.3729 5.00517 9.54629 5.00517C9.1588 5.00517 8.77131 5.01809 8.38382 5.00517C7.88008 4.99226 7.47968 5.10851 7.46676 5.80599C4.93516 3.63605 1.6415 5.09559 0.621106 7.56261C-0.0892922 9.25465 -0.179706 10.9854 0.375696 12.7291C1.27984 15.6095 4.04393 16.7332 6.69178 15.3124C7.29885 14.9895 7.6605 14.6537 8.39673 15.2995C9.06838 15.8807 10.1534 15.6999 11.0704 15.5836C11.3158 15.5449 11.4321 15.3382 11.445 15.1187C11.4708 14.6924 11.4708 14.2662 11.445 13.8399C11.4579 13.5945 11.3158 13.3879 11.0575 13.4008ZM5.94263 13.1683C5.15474 13.4525 4.27643 13.1425 3.92769 12.4579C3.2302 11.1017 3.13979 9.66797 3.9406 8.33759C4.75433 6.96846 6.25263 7.35595 7.11802 8.09218C7.28593 8.23426 7.2601 8.44092 7.2601 8.63466C7.2601 9.19007 7.2601 9.74547 7.2601 10.3138C7.2601 10.74 7.22135 11.1792 7.27301 11.6054C7.38926 12.5354 6.91136 12.8325 5.94263 13.1683Z" fill="#E0A66E"/>
<path d="M45.5183 11.1531C46.3966 11.1531 47.275 11.1531 48.1662 11.1531C49.0962 11.1531 50.0132 11.1531 50.9432 11.1531C51.4469 11.1531 51.744 10.9593 51.7182 10.3781C51.6923 9.56434 51.7182 8.75062 51.4728 7.9498C50.969 6.27068 49.897 5.12113 48.1662 4.77239C46.0737 4.35906 44.175 4.83697 42.7155 6.47734C41.4626 7.89813 41.2301 9.65476 41.5272 11.4501C41.8501 13.4522 42.948 14.8859 44.9371 15.5188C46.7196 16.0871 48.502 15.8804 50.2715 15.3896C51.5503 15.0279 51.589 14.9117 51.2144 13.6072C51.1628 13.4263 51.0982 13.2326 51.0594 13.0518C50.9561 12.6513 50.7494 12.5222 50.349 12.6901C49.7291 12.9484 49.0832 13.0905 48.4245 13.1938C47.0166 13.4263 45.6475 12.858 45.1308 11.8247C44.8596 11.2693 44.9242 11.1531 45.5183 11.1531ZM45.0017 8.62145C45.1954 7.82064 45.9962 7.17482 46.8358 7.16191C47.4558 7.13607 47.9079 7.43315 48.2308 7.92397C48.4374 8.23396 48.6312 8.60853 48.4762 8.93144C48.3341 9.22852 47.9337 9.04769 47.6366 9.0606C46.8875 9.08644 46.1383 9.0606 45.3892 9.07352C45.0404 9.08644 44.9242 8.97019 45.0017 8.62145Z" fill="#E0A66E"/>
<path d="M25.162 5.49613C23.315 6.67152 22.7079 8.42814 22.7467 10.5206C22.8113 13.8917 24.7616 15.8421 28.107 15.8421C29.5148 15.8421 30.4965 15.5579 31.4652 14.9121C34.0614 13.2072 34.0614 9.1127 32.8473 6.98151C31.3231 4.29491 27.2028 4.19158 25.162 5.49613ZM30.0703 11.7993C29.7603 12.8068 29.1403 13.2718 28.1328 13.2588C27.1899 13.2588 26.557 12.768 26.2987 11.7735C26.0145 10.7143 26.0016 9.64227 26.3633 8.59605C26.6862 7.67899 27.3191 7.26567 28.2749 7.27858C29.179 7.2915 29.7603 7.74357 30.0573 8.67354C30.2252 9.1902 30.3027 9.71977 30.2511 10.2235C30.3027 10.7918 30.2252 11.2956 30.0703 11.7993Z" fill="#E0A66E"/>
<path d="M41.4496 13.4522C41.398 13.0131 41.1526 12.871 40.7263 13.0001C40.3517 13.1164 39.9901 13.2326 39.6026 13.2326C38.8018 13.2585 38.5047 13.0389 38.3755 12.251C38.1818 11.1014 38.311 9.93898 38.2851 8.77651C38.2593 7.17489 38.2851 7.17489 39.848 7.17489C41.2171 7.17489 41.243 7.14905 41.2042 5.77992C41.2042 5.71534 41.2042 5.65076 41.2042 5.58618C41.1784 5.17285 40.9976 4.95328 40.5584 4.96619C40.003 4.97911 39.4347 4.94036 38.8793 4.97911C38.4401 5.00494 38.2593 4.87578 38.2851 4.41079C38.3239 3.79081 38.2851 3.15791 38.2981 2.53792C38.311 2.03419 38.1043 1.80169 37.6006 1.86628C36.916 1.95669 36.2444 2.03419 35.5598 2.15043C35.224 2.2021 35.0302 2.40876 35.0431 2.77042C35.0561 3.3129 35.0173 3.84247 35.0561 4.38496C35.0819 4.82412 34.9527 4.97911 34.4877 4.97911C33.6353 4.95328 33.5319 5.10827 33.5319 6.01242C33.5319 7.12322 33.5448 7.17489 34.4619 7.16197C34.914 7.16197 35.069 7.30405 35.0561 7.75612C35.0302 8.59568 35.0431 9.43524 35.0431 10.2748C35.0561 10.2748 35.0561 10.2748 35.069 10.2748C35.069 11.1402 35.0431 11.9927 35.0819 12.8581C35.1594 14.5889 36.1281 15.648 37.7426 15.7901C38.5047 15.8547 39.2797 15.8547 40.0547 15.6867C41.7467 15.338 41.8242 15.2347 41.5013 13.5685C41.4626 13.5426 41.4496 13.5039 41.4496 13.4522Z" fill="#E0A66E"/>
</svg>
